<!-- icon666.com - MILLIONS vector ICONS FREE --><svg version="1.1" id="Capa_1" xmlns="http://www.w3.org/2000/svg" xmlns:xlink="http://www.w3.org/1999/xlink" x="0px" y="0px" viewBox="0 0 409.6 409.6" style="enable-background:new 0 0 409.6 409.6;" xml:space="preserve"><g><g><path d="M275.881,250.506c-2.458-1.418-5.581-0.579-6.994,1.869c-13.194,22.794-37.729,36.956-64.041,36.956 c-26.301,0-50.836-14.157-64.026-36.941c-1.418-2.447-4.562-3.287-6.994-1.864c-2.447,1.413-3.287,4.547-1.864,6.994 c15.017,25.938,42.947,42.051,72.883,42.051c29.952,0,57.887-16.118,72.899-42.066 C279.163,255.053,278.323,251.924,275.881,250.506z"></path></g></g><g><g><path d="M139.771,151.424c-16.998,0-30.828,13.834-30.828,30.833c0,2.826,2.289,5.12,5.12,5.12s5.12-2.294,5.12-5.12 c0-11.356,9.236-20.593,20.588-20.593c11.351,0,20.593,9.236,20.593,20.593c0,2.826,2.289,5.12,5.12,5.12s5.12-2.294,5.12-5.12 C170.604,165.258,156.769,151.424,139.771,151.424z"></path></g></g><g><g><path d="M269.829,151.424c-16.998,0-30.833,13.834-30.833,30.833c0,2.826,2.289,5.12,5.12,5.12s5.12-2.294,5.12-5.12 c0-11.356,9.242-20.593,20.593-20.593s20.588,9.236,20.588,20.593c0,2.826,2.289,5.12,5.12,5.12s5.12-2.294,5.12-5.12 C300.662,165.258,286.828,151.424,269.829,151.424z"></path></g></g><g><g><path d="M404.48,199.731h-42.317c-0.333-10.517-1.705-20.767-4.009-30.669l40.863-10.952c2.729-0.732,4.352-3.538,3.62-6.272 c-0.732-2.734-3.538-4.357-6.272-3.62l-40.842,10.941c-3.026-9.974-7.009-19.533-11.858-28.57l36.649-21.156 c2.452-1.413,3.292-4.547,1.874-6.994c-1.413-2.452-4.557-3.292-6.994-1.874l-36.675,21.171 c-5.478-8.786-11.797-16.988-18.842-24.509l29.972-29.972c2.002-2.002,2.002-5.238,0-7.24c-2.002-2.002-5.238-2.002-7.24,0 l-29.967,29.973c-7.516-7.05-15.713-13.379-24.494-18.857l21.171-36.675c1.413-2.452,0.573-5.581-1.874-6.994 c-2.452-1.418-5.581-0.579-6.994,1.874l-21.156,36.639c-9.032-4.854-18.591-8.842-28.564-11.878l10.941-40.837 c0.732-2.729-0.891-5.54-3.62-6.272c-2.714-0.732-5.54,0.886-6.272,3.62L240.64,51.471c-9.902-2.314-20.152-3.691-30.669-4.029 V5.12c0-2.826-2.289-5.12-5.12-5.12s-5.12,2.294-5.12,5.12v42.317c-10.511,0.333-20.767,1.705-30.669,4.009l-10.947-40.863 c-0.732-2.734-3.538-4.362-6.272-3.62c-2.729,0.732-4.352,3.538-3.62,6.272l10.941,40.837c-9.974,3.026-19.538,7.009-28.57,11.858 L109.44,29.286c-1.418-2.452-4.557-3.287-6.994-1.874c-2.453,1.413-3.292,4.547-1.874,6.994l21.171,36.669 c-8.786,5.478-16.988,11.797-24.509,18.847L67.261,59.95c-2.002-2.002-5.238-2.002-7.24,0s-2.002,5.238,0,7.24l29.967,29.967 c-7.05,7.516-13.373,15.713-18.857,24.494l-36.675-21.176c-2.453-1.418-5.581-0.579-6.994,1.874 c-1.413,2.452-0.573,5.581,1.874,6.994l36.644,21.156c-4.854,9.032-8.842,18.591-11.873,28.559l-40.842-10.941 c-2.719-0.727-5.54,0.891-6.272,3.62c-0.732,2.734,0.891,5.54,3.62,6.272l40.863,10.947c-2.314,9.902-3.692,20.152-4.029,30.669 H5.12c-2.831,0-5.12,2.294-5.12,5.12s2.289,5.12,5.12,5.12h42.317c0.333,10.516,1.705,20.767,4.009,30.669l-40.863,10.952 c-2.729,0.732-4.352,3.538-3.62,6.272c0.609,2.289,2.678,3.799,4.941,3.799c0.44,0,0.886-0.056,1.331-0.179l40.842-10.941 c3.026,9.974,7.009,19.533,11.858,28.57L29.286,300.16c-2.452,1.413-3.292,4.547-1.874,6.994c0.952,1.644,2.667,2.56,4.439,2.56 c0.87,0,1.751-0.22,2.555-0.686l36.675-21.171c5.478,8.786,11.797,16.988,18.842,24.509L59.95,342.339 c-2.002,2.002-2.002,5.238,0,7.24c0.998,0.998,2.309,1.5,3.62,1.5c1.311,0,2.621-0.502,3.62-1.5l29.967-29.972 c7.516,7.05,15.713,13.379,24.494,18.857l-21.171,36.675c-1.413,2.452-0.573,5.581,1.874,6.994 c0.804,0.466,1.685,0.686,2.555,0.686c1.771,0,3.492-0.917,4.439-2.56l21.156-36.639c9.032,4.854,18.591,8.842,28.565,11.878 l-10.941,40.837c-0.732,2.729,0.891,5.54,3.62,6.272c0.445,0.118,0.891,0.179,1.331,0.179c2.258,0,4.331-1.51,4.941-3.799 l10.941-40.858c9.902,2.314,20.152,3.692,30.669,4.029v42.322c0,2.826,2.289,5.12,5.12,5.12s5.12-2.294,5.12-5.12v-42.317 c10.511-0.333,20.767-1.705,30.669-4.009l10.947,40.863c0.609,2.289,2.678,3.799,4.941,3.799c0.44,0,0.886-0.056,1.331-0.179 c2.729-0.732,4.352-3.538,3.62-6.272l-10.941-40.837c9.974-3.026,19.538-7.009,28.57-11.858l21.156,36.644 c0.952,1.643,2.668,2.56,4.439,2.56c0.87,0,1.751-0.22,2.555-0.686c2.452-1.413,3.292-4.547,1.874-6.994l-21.171-36.669 c8.786-5.478,16.988-11.796,24.509-18.847l29.972,29.972c0.998,0.998,2.309,1.5,3.62,1.5c1.311,0,2.621-0.502,3.62-1.5 c2.002-2.002,2.002-5.238,0-7.24l-29.967-29.967c7.05-7.516,13.373-15.713,18.857-24.494l36.675,21.176 c0.804,0.466,1.685,0.686,2.555,0.686c1.771,0,3.492-0.916,4.439-2.56c1.413-2.452,0.573-5.581-1.874-6.994l-36.644-21.156 c4.854-9.032,8.842-18.591,11.873-28.559l40.842,10.941c0.445,0.118,0.891,0.179,1.331,0.179c2.258,0,4.332-1.51,4.941-3.799 c0.732-2.734-0.891-5.54-3.62-6.272l-40.863-10.947c2.314-9.902,3.692-20.152,4.029-30.669h42.327v-0.005 c2.831,0,5.12-2.294,5.12-5.12S407.311,199.731,404.48,199.731z M204.8,352.051c-81.193,0-147.251-66.058-147.251-147.251 S123.607,57.549,204.8,57.549S352.051,123.607,352.051,204.8S285.993,352.051,204.8,352.051z"></path></g></g></svg>