<!-- icon666.com - MILLIONS vector ICONS FREE --><svg version="1.1" xmlns="http://www.w3.org/2000/svg" viewBox="0 0 512 512" xmlns:xlink="http://www.w3.org/1999/xlink" enable-background="new 0 0 512 512"><g><g><path d="m120.3,297.2c-11.3,0-20.4,9.1-20.4,20.4v32.2c0,11.3 9.1,20.4 20.4,20.4 11.3,0 20.4-9.1 20.4-20.4v-32.2c-2.84217e-14-11.3-9.2-20.4-20.4-20.4z"></path><path d="m256,297.2c-11.3,0-20.4,9.1-20.4,20.4v32.2c0,11.3 9.1,20.4 20.4,20.4 11.3,0 20.4-9.1 20.4-20.4v-32.2c0-11.3-9.1-20.4-20.4-20.4z"></path><path d="m391.7,297.2c-11.3,0-20.4,9.1-20.4,20.4v32.2c0,11.3 9.1,20.4 20.4,20.4 11.3,0 20.4-9.1 20.4-20.4v-32.2c5.68434e-14-11.3-9.1-20.4-20.4-20.4z"></path><path d="m188.1,392.6c-11.3,0-20.4,9.1-20.4,20.4v32.2c0,11.3 9.1,20.4 20.4,20.4 11.3,0 20.4-9.1 20.4-20.4v-32.2c0-11.3-9.1-20.4-20.4-20.4z"></path><path d="m323.9,392.6c-11.3,0-20.4,9.1-20.4,20.4v32.2c0,11.3 9.1,20.4 20.4,20.4s20.4-9.1 20.4-20.4v-32.2c5.68434e-14-11.3-9.2-20.4-20.4-20.4z"></path><path d="m467.2,235.6c-4.8-75.7-59.1-133.9-126.4-133.9-13.1,0-25.9,2.3-38.2,6.7-23.6-38.7-62-62-104.3-62-70,0-126.9,64.9-126.9,144.6 0,6.2 0.4,12.5 1.1,18.9-37.7,25.9-61.5,72.9-61.5,123.9 0,11.3 9.1,20.4 20.4,20.4 11.3,0 20.4-9.1 20.4-20.4 0-41.6 20.6-79 52.5-95.4 8.2-4.2 12.5-13.3 10.7-22.3-1.8-8.6-2.7-17-2.7-25.1 0-57.2 38.6-103.7 86-103.7 32.1,0 61.3,21.5 76.3,56.1 2.3,5.4 6.8,9.5 12.4,11.3 5.5,1.8 11.6,1.2 16.6-1.7 11.8-6.8 24.3-10.3 37.1-10.3 46.3,0 84.9,45.5 85.9,101.4 0.1,4.9 2,9.7 5.3,13.3 17.9,19.7 28.2,47.6 28.2,76.6 0,11.3 9.1,20.4 20.4,20.4 11.3,0 20.4-9.1 20.4-20.4 0.1-37-11.9-71.6-33.7-98.4z"></path></g></g></svg>